Coordinates
version=1
nRows=14
nColumns=42
inDegrees=yes

Units are S.I. units (second, meters, Newtons, ...)
If the header above contains a line with 'inDegrees', this indicates whether rotational values are in degrees (yes) or radians (no).

endheader
time	pelvis_tilt	pelvis_list	pelvis_rotation	pelvis_tx	pelvis_ty	pelvis_tz	hip_flexion_r	hip_adduction_r	hip_rotation_r	knee_angle_r	knee_adduction_r	knee_angle_r_beta	ankle_angle_r	subtalar_angle_r	mtp_angle_r	hip_flexion_l	hip_adduction_l	hip_rotation_l	knee_angle_l	knee_adduction_l	knee_angle_l_beta	ankle_angle_l	subtalar_angle_l	mtp_angle_l	lumbar_extension	lumbar_bending	lumbar_rotation	arm_flex_r	arm_add_r	arm_rot_r	elbow_flex_r	pro_sup_r	wrist_flex_r	wrist_dev_r	arm_flex_l	arm_add_l	arm_rot_l	elbow_flex_l	pro_sup_l	wrist_flex_l	wrist_dev_l
      3.00000000	      4.72854278	     -0.18115949	      3.63404768	     -0.19285057	      0.86967407	     -0.21600758	      7.97086432	     -6.37373988	     -0.16086500	     67.28889527	      3.91002940	      1.17441277	      1.62741737	      0.37261060	     -7.51683923	     15.04794369	      3.06435120	     -8.91481319	     36.66464524	     -4.96593655	      0.63991878	     18.13595272	     19.65676100	     -7.51683923	    -25.65825857	      4.89268414	     -3.20308741	      3.46361066	    -14.98641677	    -11.17018544	     51.59995814	     90.00000001	      0.00000000	      0.00000000	     16.66176103	    -10.41350508	     27.99635119	     47.90646502	     90.00000001	      0.00000000	      0.00000000
      3.01000000	      4.29214784	      0.13041606	      3.35457562	     -0.19001106	      0.86791113	     -0.21666124	     10.08023052	     -6.62547396	      0.52694990	     69.34650539	      3.70316805	      1.21032484	      3.10044654	     -0.78038903	     -7.51643082	     15.53307237	      3.34070665	     -9.52974564	     37.16397148	     -5.02585287	      0.64863367	     19.08749869	     20.05553625	     -7.51643082	    -25.31934226	      4.38323526	     -3.20188155	      3.40292109	    -14.86930945	    -11.68327306	     50.95454172	     90.00000001	      0.00000000	      0.00000000	     16.82379912	    -10.51579989	     27.93577965	     47.59316568	     90.00000001	      0.00000000	      0.00000000
      3.02000000	      3.73890149	      0.09498561	      3.28672541	     -0.18748370	      0.86604842	     -0.21757237	     12.22119228	     -6.58821914	      1.67391628	     70.98584495	      4.36327788	      1.23893672	      3.80160419	     -1.43422083	     -7.51560912	     16.37667173	      3.32164939	    -10.01824585	     37.99511740	     -5.29242156	      0.66313990	     19.39357374	     20.65870043	     -7.51560912	    -24.87781154	      4.38099160	     -3.31034143	      3.40252337	    -14.69252635	    -12.45584829	     50.52077431	     90.00000001	      0.00000000	      0.00000000	     16.89001958	    -10.59168446	     27.84143992	     47.37842188	     90.00000001	      0.00000000	      0.00000000
      3.03000000	      3.92682860	      0.13170712	      3.18904595	     -0.18433408	      0.86569867	     -0.21822771	     13.30347207	     -6.44022747	      1.57121745	     71.96702841	      3.76867028	      1.25606160	      4.69437748	     -1.69660833	     -7.51534269	     15.99092031	      3.31949179	    -10.06333791	     38.17558505	     -5.20234547	      0.66628965	     19.78855881	     20.61527961	     -7.51534269	    -25.23076717	      4.28996103	     -3.33900076	      3.28887750	    -14.70842582	    -12.54577347	     50.24846482	     90.00000001	      0.00000000	      0.00000000	     17.05681992	    -10.71925166	     27.71862278	     47.24652096	     90.00000001	      0.00000000	      0.00000000
      3.04000000	      3.92987394	      0.20325492	      3.11577435	     -0.18130399	      0.86504213	     -0.21897711	     14.62064968	     -6.36406619	      1.28394497	     72.83731090	      3.05564595	      1.27125089	      5.69216276	     -1.72552016	     -7.51505215	     15.86764150	      3.39742167	    -10.17411723	     38.44729518	     -5.19945860	      0.67103189	     20.15504107	     20.61651975	     -7.51505215	    -25.36195018	      4.17903495	     -3.43021462	      3.19212516	    -14.67795689	    -12.74371246	     49.87723547	     90.00000001	      0.00000000	      0.00000000	     17.17808899	    -10.82155426	     27.60105058	     47.07739746	     90.00000001	      0.00000000	      0.00000000
      3.05000000	      4.12556895	      0.12125957	      3.19275578	     -0.17834950	      0.86494060	     -0.21991144	     15.54645713	     -6.22788221	      1.16093041	     73.19315019	      2.89734744	      1.27746146	      5.90341460	     -1.53854279	     -7.51487394	     15.52037071	      3.36384826	    -10.07532608	     38.64349452	     -5.23047863	      0.67445621	     20.10854657	     20.49829478	     -7.51487394	    -25.74325414	      4.33011428	     -3.60339330	      3.07630160	    -14.77051167	    -12.79986539	     49.81350344	     90.00000001	      0.00000000	      0.00000000	     17.31278452	    -10.97734816	     27.46990844	     47.10132133	     90.00000001	      0.00000000	      0.00000000
      3.06000000	      3.66764901	      0.31542873	      3.13019473	     -0.17560158	      0.86353079	     -0.22056510	     17.50225232	     -6.31754738	     -0.32505509	     73.88321093	      1.05054026	      1.28950529	      7.67854906	     -0.44226137	     -7.51432972	     15.99264987	      3.63243555	    -10.17410407	     39.04767482	     -5.28816636	      0.68151049	     20.74336484	     20.62423589	     -7.51432972	    -25.32823802	      4.05380351	     -3.73111740	      3.10692364	    -14.51014489	    -13.45455429	     48.97175683	     90.00000001	      0.00000000	      0.00000000	     17.39249619	    -10.98188692	     27.29938498	     46.70940455	     90.00000001	      0.00000000	      0.00000000
      3.07000000	      3.79548508	      0.28158436	      3.14715862	     -0.17257514	      0.86349392	     -0.22140283	     18.41396437	     -6.28189856	     -0.42813992	     73.73718472	      1.06119224	      1.28695665	      7.69458468	     -0.21799405	     -7.51410811	     15.69993033	      3.60485700	    -10.07794852	     39.26850451	     -5.18949974	      0.68536470	     20.55603264	     20.40897360	     -7.51410811	    -25.59737167	      4.16126462	     -3.87286761	      2.88471089	    -14.53875616	    -13.43796783	     49.01358710	     90.00000001	      0.00000000	      0.00000000	     17.37387718	    -11.08984873	     27.16395114	     46.83207338	     90.00000001	      0.00000000	      0.00000000
      3.08000000	      3.69681736	      0.46592169	      3.13980971	     -0.16960429	      0.86305985	     -0.22200476	     19.75912854	     -6.32266404	     -2.96997946	     73.65518316	     -1.66315100	      1.28552546	      9.45475138	      1.83769772	     -7.51338866	     15.51874440	      3.85675105	     -9.73739808	     39.22038620	     -4.96539493	      0.68452487	     21.17065027	     20.35729150	     -7.51338866	    -25.57176426	      3.92849099	     -3.98307100	      2.94415287	    -14.34645583	    -14.11203748	     48.13200929	     90.00000001	      0.00000000	      0.00000000	     17.54581767	    -11.12307053	     26.93214935	     46.45929159	     90.00000001	      0.00000000	      0.00000000
      3.09000000	      3.73377948	      0.58612044	      2.97040298	     -0.16665855	      0.86305028	     -0.22237762	     20.83747950	     -6.34304776	     -3.68604497	     73.26537163	     -2.42557164	      1.27872196	     10.08607655	      2.12630898	     -7.51312079	     15.13844778	      3.96266230	     -9.63277793	     39.07163347	     -4.75226859	      0.68192865	     21.43361270	     20.25183105	     -7.51312079	    -25.73510442	      3.76375080	     -3.92101827	      2.78510099	    -14.34089732	    -14.18020241	     47.84415579	     90.00000001	      0.00000000	      0.00000000	     17.64049395	    -11.19136191	     26.82792256	     46.38756484	     90.00000001	      0.00000000	      0.00000000
      3.10000000	      3.76213020	      0.69477421	      3.01983537	     -0.16360850	      0.86314104	     -0.22305625	     21.79042517	     -6.46399139	     -5.30552435	     72.53027353	     -3.76624804	      1.26589208	     10.81567105	      3.15764796	     -7.51272923	     14.80430884	      4.13146021	     -9.37254878	     39.00064362	     -4.59118364	      0.68068964	     21.61439147	     20.15001743	     -7.51272923	    -25.84381897	      3.68817340	     -4.08029853	      2.71103565	    -14.26649087	    -14.42667725	     47.31002499	     90.00000001	      0.00000000	      0.00000000	     17.69738346	    -11.26257457	     26.67231294	     46.23677544	     90.00000001	      0.00000000	      0.00000000
      3.11000000	      3.70188959	      0.76004726	      2.98899000	     -0.16087716	      0.86315251	     -0.22355663	     22.78858552	     -6.57965010	     -5.64420205	     71.64311804	     -3.74904253	      1.25040830	     10.88455954	      3.37705787	     -7.51250756	     14.65685455	      4.16842301	     -9.33021058	     39.05112014	     -4.42866765	      0.68157062	     21.48768472	     19.94892621	     -7.51250756	    -25.91756347	      3.63530323	     -4.11846896	      2.48918852	    -14.27540205	    -14.42663968	     47.31108870	     90.00000001	      0.00000000	      0.00000000	     17.74338371	    -11.34014243	     26.53171918	     46.41335787	     90.00000001	      0.00000000	      0.00000000
      3.12000000	      3.96367650	      0.73217584	      3.33153119	     -0.15750465	      0.86393236	     -0.22448977	     23.16757372	     -6.67553805	     -8.65913956	     70.15491632	     -5.96843055	      1.22443428	     11.88249599	      5.95122984	     -7.51194900	     13.93867621	      4.23629541	     -8.72898224	     38.73558720	     -4.24253100	      0.67606353	     21.71697526	     20.03806502	     -7.51194900	    -26.22749240	      3.82303235	     -4.45488153	      2.56000814	    -14.09890860	    -15.00224005	     46.43883445	     90.00000001	      0.00000000	      0.00000000	     17.76875386	    -11.37275822	     26.27643829	     46.25714777	     90.00000001	      0.00000000	      0.00000000
      3.13000000	      3.84334105	      0.78910530	      3.29098780	     -0.15471061	      0.86406826	     -0.22491464	     24.11708857	     -6.78812578	     -9.23082456	     68.88464720	     -6.06899909	      1.20226390	     12.19666968	      6.30073160	     -7.51169391	     13.70414378	      4.33851881	     -8.64321087	     38.44159255	     -4.18184827	      0.67093236	     21.78957930	     19.96506887	     -7.51169391	    -26.21442356	      3.78597461	     -4.42874963	      2.33849744	    -14.11583515	    -15.04661387	     46.31956493	     90.00000001	      0.00000000	      0.00000000	     17.79291947	    -11.42427346	     26.17152382	     46.37118903	     90.00000001	      0.00000000	      0.00000000
